<?xml version="1.0" encoding="UTF-8" standalone="no"?><!DOCTYPE svg PUBLIC "-//W3C//DTD SVG 1.1//EN" "http://www.w3.org/Graphics/SVG/1.1/DTD/svg11.dtd"><svg width="60" height="60" viewBox="0 0 60 60" version="1.1" xmlns="http://www.w3.org/2000/svg" xmlns:xlink="http://www.w3.org/1999/xlink" xml:space="preserve" xmlns:serif="http://www.serif.com/" style="fill-rule:evenodd;clip-rule:evenodd;stroke-linejoin:round;stroke-miterlimit:1.41421;"><circle cx="30" cy="30" r="30" style="fill:#00aec4;"/><path d="M42.89,19.664l0.136,0.014l0.134,0.023l0.133,0.033l0.13,0.042l0.127,0.05l0.123,0.059l0.119,0.067l0.114,0.075l0.109,0.083l0.103,0.09l0.096,0.096l0.09,0.103l0.082,0.109l0.075,0.115l0.066,0.119l0.059,0.123l0.05,0.127l0.041,0.131l0.032,0.132l0.023,0.135l0.014,0.136l0.004,0.136l-0.005,0.137l-0.014,0.136l-0.024,0.134l-0.032,0.133l-0.042,0.13l-0.05,0.127l-0.059,0.123l-0.067,0.119l-0.075,0.114l-0.083,0.109l-17.714,21.697l-0.54,-0.026l-8.638,-12.959l-0.072,-0.116l-0.063,-0.121l-0.056,-0.125l-0.046,-0.128l-0.038,-0.131l-0.029,-0.134l-0.02,-0.135l-0.01,-0.136l-0.001,-0.137l0.009,-0.136l0.017,-0.135l0.027,-0.134l0.036,-0.132l0.045,-0.129l0.053,-0.126l0.062,-0.121l0.07,-0.118l0.078,-0.112l0.085,-0.106l0.093,-0.101l0.099,-0.094l0.105,-0.087l0.111,-0.079l0.116,-0.072l0.121,-0.064l0.125,-0.055l0.128,-0.047l0.131,-0.038l0.134,-0.028l0.135,-0.02l0.136,-0.01l0.137,-0.001l0.136,0.008l0.136,0.018l0.133,0.026l0.132,0.036l0.129,0.045l0.126,0.053l0.122,0.062l0.117,0.07l0.112,0.078l0.107,0.086l0.1,0.092l0.094,0.099l0.087,0.106l0.08,0.111l5.887,8.832l14.578,-17.856l0.09,-0.103l0.097,-0.096l0.102,-0.09l0.109,-0.082l0.115,-0.075l0.119,-0.066l0.123,-0.059l0.128,-0.05l0.13,-0.041l0.133,-0.032l0.134,-0.023l0.136,-0.014l0.136,-0.004l0.137,0.005Z" style="fill:#fff;"/></svg>